<svg viewBox="0 0 208 190" fill="none" xmlns="http://www.w3.org/2000/svg">
<path d="M103.855 17.8242C92.4463 6.41155 76.9721 6.26538e-06 60.8371 6.50588e-06C44.7021 6.74638e-06 29.2279 6.41155 17.8188 17.8242C6.4096 29.2368 2.4043e-07 44.7156 0 60.8555C-2.4043e-07 76.9954 6.4096 92.4743 17.8188 103.887L103.855 189.95L189.892 103.887C201.301 92.4743 207.711 76.9954 207.711 60.8555C207.711 44.7156 201.301 29.2368 189.892 17.8242C178.483 6.41155 163.009 -3.99799e-07 146.874 0C130.739 3.99799e-07 115.265 6.41155 103.855 17.8242V17.8242Z" fill="#d72323"/>
</svg>
