<svg viewBox="0 0 512 512" fill="none" xmlns="http://www.w3.org/2000/svg">
<g clip-path="url(#clip0)">
<g clip-path="url(#clip1)">
<path d="M406.188 205.473C425.227 203.867 442.527 193.77 453.289 177.98L477.07 143.086C496.547 114.504 504.199 79.4922 498.418 45.3906C497.473 39.8125 494.648 34.9375 490.648 31.3906C486.648 27.8437 481.469 25.6211 475.816 25.3516C441.27 23.7031 407.422 35.4961 381.383 58.2617L349.594 86.0547C335.207 98.6289 327.258 117.02 327.945 136.113L329.66 166.207C330.449 180.109 325.398 193.711 315.719 203.727L67.4062 458.82C55.4609 471.273 58.3555 493.012 71.2695 504.461C84.1797 515.906 106.113 516.176 117.043 502.824L340.523 225.715C349.309 214.91 362.207 208.262 376.105 207.379L406.188 205.473Z" fill="#E2E2E2"/>
<path d="M498.418 45.3906C497.473 39.8125 494.648 34.9375 490.648 31.3906C489.148 30.0586 487.48 28.9141 485.688 27.9922C483.895 27.0664 481.969 26.3633 479.953 25.9102C478.613 25.6094 477.23 25.418 475.816 25.3516C474.574 25.293 473.332 25.2578 472.094 25.2305C471.719 25.2227 471.344 25.2227 470.969 25.2187C470.082 25.207 469.199 25.207 468.316 25.2148C467.91 25.2148 467.504 25.2227 467.098 25.2266C466.18 25.2461 465.262 25.2734 464.344 25.3047C464.02 25.3203 463.691 25.3281 463.367 25.3437C462.113 25.3984 460.863 25.4687 459.613 25.5625C459.922 52.7852 451.918 79.6445 436.398 102.418L412.617 137.309C404.16 149.715 391.668 158.609 377.469 162.629C366.598 165.707 355.969 169.586 345.902 174.711C336.555 179.469 327.363 184.223 327.25 184.57C327.219 184.672 327.18 184.773 327.148 184.871C326.918 185.551 326.684 186.227 326.426 186.895C326.375 187.031 326.316 187.164 326.262 187.301C326.016 187.93 325.762 188.559 325.488 189.18C325.41 189.352 325.328 189.523 325.25 189.695C324.984 190.273 324.719 190.852 324.434 191.422C324.328 191.633 324.211 191.836 324.105 192.047C323.832 192.574 323.555 193.098 323.262 193.617C323.121 193.867 322.969 194.109 322.824 194.355C322.547 194.828 322.273 195.297 321.98 195.762C321.797 196.051 321.602 196.332 321.41 196.621C321.137 197.031 320.871 197.445 320.582 197.848C320.348 198.184 320.094 198.512 319.848 198.84C319.59 199.187 319.34 199.539 319.074 199.875C318.754 200.281 318.418 200.676 318.086 201.074C317.875 201.328 317.672 201.586 317.453 201.836C316.895 202.48 316.316 203.109 315.719 203.727L67.4062 458.82C55.4609 471.273 58.3555 493.012 71.2695 504.461C84.1797 515.906 106.113 516.176 117.043 502.824L340.523 225.715C349.309 214.91 362.207 208.262 376.105 207.379L406.188 205.473C425.227 203.867 442.527 193.77 453.285 177.98L477.066 143.086C496.547 114.504 504.199 79.4922 498.418 45.3906V45.3906Z" fill="#D8D6D4"/>
<path d="M376.59 215.039L406.672 213.133C406.723 213.129 406.777 213.125 406.832 213.121C428.27 211.313 447.512 200.082 459.629 182.301L483.41 147.41C504.109 117.035 512.129 80.3477 505.984 44.1094C504.777 36.9922 501.137 30.4336 495.738 25.6484C490.336 20.8594 483.391 18.0313 476.18 17.6875C439.453 15.9297 404.004 28.293 376.332 52.4844L344.543 80.2773C328.344 94.4375 319.5 114.887 320.273 136.391C320.277 136.441 320.277 136.496 320.281 136.551L321.996 166.641C322.664 178.371 318.363 189.945 310.219 198.375L61.8672 453.508C55.2188 460.441 51.7852 469.953 52.2031 480.293C52.6641 491.676 57.8867 502.855 66.1758 510.203C73.6641 516.84 83.957 520.621 94.2461 520.621C95.3477 520.621 96.4492 520.578 97.5469 520.488C107.863 519.664 116.898 515.117 123.016 507.641L346.48 230.555C353.891 221.438 364.867 215.781 376.59 215.039ZM334.551 220.898L111.105 497.961C107.691 502.133 102.441 504.703 96.3242 505.191C89.0469 505.773 81.5859 503.352 76.3594 498.719C71.1328 494.082 67.8359 486.965 67.543 479.672C67.293 473.543 69.2109 468.023 72.9063 464.172L321.238 209.059C332.371 197.539 338.23 181.762 337.324 165.77L335.609 135.758C335.027 118.926 341.961 102.922 354.645 91.832L386.434 64.0391C411.105 42.4727 442.723 31.4609 475.449 33.0156C479.176 33.1953 482.762 34.6563 485.555 37.1328C488.348 39.6055 490.227 42.9961 490.852 46.6719C496.328 78.9805 489.18 111.684 470.727 138.762L446.945 173.656C437.457 187.578 422.398 196.379 405.617 197.82L375.617 199.719C359.633 200.734 344.672 208.445 334.551 220.898Z" fill="black"/>
</g>
<path d="M124.817 49.7538L95.6149 20.5515C81.6128 6.54948 58.9165 6.54948 44.9243 20.5515L17.9204 47.5455C3.9283 61.5476 3.9283 84.2439 17.9204 98.236L47.1326 127.448L95.3039 139.931L138.297 94.3533L124.817 49.7538Z" fill="#EFEDEF"/>
<path d="M500.981 494.105L496.366 458.783C496.321 458.444 486.429 449.936 486.429 449.936L446.758 488.76L456.151 498.997L491.483 503.612C497 504.325 501.703 499.621 500.981 494.105V494.105Z" fill="#AA9EA9"/>
<path d="M490.741 415.678L479.195 404.132L447.12 400.874L396.179 451.815L401.511 481.826L413.057 493.373L456.152 498.997L496.366 458.783L490.741 415.678Z" fill="#FAE2C0"/>
<path d="M148.9 73.8365L120.841 64.5034L59.1165 125.118L71.2153 151.521L401.511 481.826L427.97 455.363L424.333 451.973L447.898 427.799L449.227 426.835C449.227 426.835 451.158 428.593 453.055 430.273L479.194 404.131L148.9 73.8365Z" fill="#FEE45A"/>
<path d="M97.5149 125.21L122.527 100.198L452.775 430.447L427.763 455.458L97.5149 125.21Z" fill="#EE6161"/>
<path d="M148.9 73.8365L71.2153 151.521L47.1326 127.448V127.438L124.817 49.7538L148.9 73.8365Z" fill="#E5E1E5"/>
<path d="M498.108 414.721C497.896 413.097 497.153 411.588 495.996 410.43L154.157 68.5931C154.154 68.5902 154.152 68.5872 154.15 68.5852L130.067 44.5025C130.064 44.4995 130.061 44.4976 130.058 44.4946L100.863 15.2993C83.9934 -1.56952 56.5429 -1.56952 39.6731 15.2993L12.6731 42.2972C4.50065 50.4697 0 61.3346 0 72.8928C0 84.4499 4.50065 95.3158 12.6731 103.487L41.8714 132.685C41.8734 132.687 41.8754 132.69 41.8774 132.692L65.9601 156.774C65.963 156.776 65.965 156.779 65.968 156.781L109.621 200.434C112.521 203.333 117.224 203.333 120.123 200.434C123.024 197.533 123.024 192.831 120.123 189.931L81.7148 151.522L97.5468 135.69L417.341 455.485L401.509 471.317L142.504 212.312C139.603 209.413 134.901 209.413 132.001 212.312C129.101 215.213 129.101 219.915 132.001 222.815L407.806 498.62C408.964 499.777 410.472 500.52 412.096 500.732L490.521 510.971C491.224 511.063 491.925 511.109 492.62 511.109C496.809 511.109 500.805 509.467 503.823 506.449C507.342 502.929 508.991 498.081 508.345 493.147L498.108 414.721ZM14.8536 72.8928C14.8536 65.3026 17.8095 58.1669 23.1766 52.8007L50.1756 25.8018C61.2544 14.7219 79.2808 14.7219 90.3596 25.8018L114.312 49.7538L47.1296 116.936L23.1766 92.9838C17.8095 87.6177 14.8536 80.482 14.8536 72.8928V72.8928ZM57.6321 127.44L124.814 60.2573L138.394 73.8375L117.318 94.9148C117.316 94.9167 117.314 94.9187 117.311 94.9207C117.308 94.9227 117.307 94.9247 117.305 94.9276L92.3094 119.924C92.3055 119.928 92.3005 119.932 92.2956 119.936C92.2906 119.94 92.2876 119.945 92.2837 119.95L71.2123 141.02L57.6321 127.44ZM108.051 125.187L122.563 110.675L342.586 330.699C344.037 332.149 345.938 332.874 347.839 332.874C349.739 332.874 351.64 332.149 353.091 330.699C355.991 327.798 355.991 323.096 353.091 320.196L133.066 100.172L148.897 84.341L468.693 404.135L452.861 419.967L375.47 342.575C372.57 339.677 367.868 339.675 364.967 342.575C362.066 345.477 362.066 350.179 364.967 353.079L442.357 430.47L427.846 444.981L108.051 125.187ZM412.014 481.822L479.197 414.639L483.707 419.149L488.423 455.276L452.65 491.049L416.524 486.333L412.014 481.822ZM493.321 495.946C493.079 496.188 492.789 496.288 492.445 496.244L471.232 493.475L490.849 473.857L493.619 495.07C493.662 495.409 493.563 495.705 493.321 495.946Z" fill="black"/>
</g>
<defs>
<clipPath id="clip0">
<rect width="512" height="512" fill="white"/>
</clipPath>
<clipPath id="clip1">
<rect x="-4" y="10" width="511.999" height="511" fill="white"/>
</clipPath>
</defs>
</svg>
