<svg viewBox="0 0 464 613" fill="none" xmlns="http://www.w3.org/2000/svg">
<path d="M121.716 182.587V144H115.716V182.587C113.995 183.283 112.57 184.556 111.684 186.188C110.799 187.82 110.509 189.709 110.863 191.531C111.218 193.354 112.195 194.996 113.628 196.177C115.061 197.357 116.859 198.003 118.716 198.003C120.573 198.003 122.371 197.357 123.804 196.177C125.237 194.996 126.214 193.354 126.569 191.531C126.923 189.709 126.633 187.82 125.748 186.188C124.862 184.556 123.437 183.283 121.716 182.587Z" fill="#333333"/>
<path d="M135.716 572H94.716V74H78.716V572H37.716C32.8571 572 28.0458 572.957 23.5567 574.816C19.0677 576.676 14.9888 579.401 11.5531 582.837C8.11729 586.273 5.3919 590.352 3.53249 594.841C1.67307 599.33 0.71604 604.141 0.716049 609V609H172.716V609C172.716 604.141 171.759 599.33 169.9 594.841C168.04 590.352 165.315 586.273 161.879 582.837C158.443 579.401 154.364 576.676 149.875 574.816C145.386 572.957 140.575 572 135.716 572V572Z" fill="#333333"/>
<path d="M0.799057 148H172.633L162.125 16.6597C161.741 12.1308 159.676 7.90959 156.337 4.82651C152.997 1.74342 148.624 0.0216631 144.079 -3.05176e-05H29.3528C24.8077 0.021662 20.4352 1.74342 17.0956 4.82649C13.756 7.90957 11.691 12.1308 11.3069 16.6596L0.799057 148Z" fill="#D72323"/>
<path d="M240.055 378.52C238.439 378.251 236.785 378.306 235.19 378.682C233.595 379.057 232.091 379.746 230.764 380.708C229.438 381.67 228.315 382.886 227.463 384.285C226.61 385.684 226.044 387.239 225.797 388.859L220.959 420.607L237.419 424.973L249.48 395.392C250.181 393.673 250.486 391.819 250.373 389.966C250.259 388.113 249.73 386.31 248.825 384.69C247.92 383.069 246.661 381.673 245.143 380.605C243.625 379.537 241.886 378.824 240.055 378.52Z" fill="#FDC2CC"/>
<path d="M239.747 420.548C248.882 456.85 244.951 490.054 210.935 516.124C170.136 504.878 143 477.743 126.444 438.306C125.415 435.854 124.893 433.219 124.91 430.56C124.927 427.901 125.483 425.272 126.544 422.834C127.605 420.395 129.149 418.197 131.083 416.372C133.017 414.547 135.301 413.132 137.797 412.214V412.214C141.547 410.835 145.628 410.631 149.496 411.628C153.365 412.625 156.839 414.777 159.455 417.796L199.487 464L218.266 417.411L239.747 420.548Z" fill="#D72323"/>
<path d="M448.788 611.007C411.535 609.028 388.393 596.237 382.788 570.007L388.788 559.007L457.483 590.301C459.217 591.091 460.677 592.379 461.677 594.001C462.678 595.623 463.173 597.506 463.101 599.41C463.029 601.315 462.391 603.155 461.271 604.696C460.15 606.237 458.596 607.411 456.807 608.067L448.788 611.007Z" fill="#333333"/>
<path d="M420.003 611.27C400.647 610.683 382.032 610.866 364.394 612.059C361.3 612.271 358.248 611.254 355.899 609.229C353.55 607.204 352.094 604.335 351.847 601.244L350.788 588.007L335.788 564.007L348.788 551.007C370.635 572.766 394.595 591.042 423.051 601.906C423.966 602.533 424.653 603.439 425.009 604.488C425.366 605.538 425.373 606.675 425.03 607.729C424.687 608.783 424.012 609.697 423.106 610.335C422.199 610.974 421.111 611.301 420.003 611.27V611.27Z" fill="#333333"/>
<path d="M314.788 517.007C290.072 561.233 265.763 591.047 233.788 607.007C194.449 619.991 165.698 602.789 143.288 567.507L208.288 524.507L217.788 534.007L303.886 468.489C305.989 466.497 308.793 465.416 311.689 465.481C314.584 465.545 317.337 466.75 319.35 468.832L392.788 559.007L383.788 574.007L314.788 517.007Z" fill="#2F2E41"/>
<path d="M336.788 569.007L302.788 517.007L310.788 502.007L355.788 549.007L336.788 569.007Z" fill="#2F2E41"/>
<path d="M140.788 403.007C159.566 403.007 174.788 387.785 174.788 369.007C174.788 350.229 159.566 335.007 140.788 335.007C122.01 335.007 106.788 350.229 106.788 369.007C106.788 387.785 122.01 403.007 140.788 403.007Z" fill="#FDC2CC"/>
<path d="M149.788 432.007L111.788 419.007C117.411 410.071 119.876 399.508 118.788 389.007H149.788C148.025 404.265 147.761 418.737 149.788 432.007Z" fill="#FDC2CC"/>
<path d="M230.788 523.007C225.091 525.346 224.675 532.93 219.288 535.507C193.248 547.966 165.699 558.075 146.788 576.007C102.595 545.997 61.6333 452.789 114.788 412.007C132.932 422.624 149.139 430.222 148.788 412.007L230.788 523.007Z" fill="#D72323"/>
<path opacity="0.2" d="M207.788 483.007L189.288 476.507L152.788 505.007L136.426 446.104C135.291 442.018 133.452 444.089 130.812 446.927C128.06 444.38 124.637 442.672 120.946 442.006C117.256 441.341 113.452 441.744 109.983 443.169C106.514 444.594 103.525 446.981 101.368 450.049C99.2111 453.117 97.9765 456.737 97.8096 460.483C95.8633 503.21 108.748 539.357 140.788 567.007C182.695 558.034 200.48 529.72 207.788 493.007L205.807 491.686C206.537 488.849 207.197 485.956 207.788 483.007Z" fill="black"/>
<path d="M145.363 324.281C156.578 326.843 169.343 330.474 170.059 333.848C181.595 336.755 190.303 343.719 192.081 354.335C192.23 355.252 192.175 356.191 191.922 357.085C191.668 357.98 191.222 358.807 190.613 359.51C190.005 360.213 189.251 360.774 188.402 361.154C187.554 361.534 186.632 361.723 185.703 361.708C179.429 361.627 170.01 361.026 163.791 358.429C145.724 370.07 142.692 400.347 150.582 420.956L138.166 419.818L125.321 382.216L122.04 418.34L93.7072 414.594L97.3566 368.529C98.4782 357.672 102.173 347.239 108.135 338.096C108.754 337.178 109.431 336.3 110.163 335.469C114.473 330.599 120.021 326.988 126.219 325.018C132.417 323.048 139.032 322.793 145.363 324.281V324.281Z" fill="#442727"/>
<path d="M209.285 438.428L240.402 475.011L287.078 419.925L255.54 381.659L209.285 438.428Z" fill="#3F3D56"/>
<path d="M279.088 421.187L242.084 390.91C244.186 385.864 254.278 387.546 254.278 387.546L283.245 416.912C284.254 417.935 285.119 419.09 285.816 420.346V420.346L279.088 421.187Z" fill="#F2F2F2"/>
<path d="M280.77 419.084L238.72 386.285L192.044 456.93L235.987 486.575C240.192 488.257 244.397 485.314 244.397 485.314L287.288 419.715L280.77 419.084Z" fill="#3F3D56"/>
<path d="M243.964 396.522L243.566 397.076L270.48 416.416L270.878 415.862L243.964 396.522Z" fill="#D72323"/>
<path d="M271.235 423.101L235.913 476.505L236.481 476.881L271.803 423.477L271.235 423.101Z" fill="#D72323"/>
<path d="M203.603 457.071L203.199 457.62L231.787 478.654L232.191 478.105L203.603 457.071Z" fill="#D72323"/>
<path d="M238.861 397.444L202.277 450.007L202.836 450.396L239.42 397.833L238.861 397.444Z" fill="#D72323"/>
<path d="M250.161 387.13L249.877 387.439L283.151 417.978L283.435 417.668L250.161 387.13Z" fill="#B3B3B3"/>
<path d="M247.389 387.391L247.111 387.707L281.887 418.407L282.165 418.092L247.389 387.391Z" fill="#B3B3B3"/>
<path d="M245.214 388.003L244.944 388.326L281.045 418.418L281.314 418.095L245.214 388.003Z" fill="#B3B3B3"/>
<path d="M226.081 449.168C224.736 448.232 223.219 447.573 221.617 447.228C220.015 446.884 218.36 446.861 216.749 447.162C215.139 447.462 213.604 448.08 212.233 448.978C210.863 449.877 209.685 451.039 208.768 452.397L190.788 479.007L203.788 490.007L227.364 468.451C228.734 467.199 229.805 465.654 230.496 463.932C231.188 462.209 231.483 460.353 231.36 458.501C231.237 456.649 230.698 454.848 229.785 453.233C228.871 451.617 227.605 450.228 226.081 449.168V449.168Z" fill="#FDC2CC"/>
<path d="M207.788 487.007C200.48 523.721 182.695 552.034 140.788 561.007C108.748 533.357 95.8633 497.21 97.8096 454.484C97.9307 451.827 98.5888 449.223 99.7443 446.827C100.9 444.432 102.529 442.296 104.532 440.548C106.536 438.799 108.874 437.475 111.403 436.655C113.933 435.835 116.603 435.536 119.251 435.776V435.776C123.23 436.138 127.005 437.703 130.073 440.262C133.141 442.821 135.357 446.254 136.426 450.104L152.788 509.007L189.725 474.965L207.788 487.007Z" fill="#D72323"/>
</svg>
