<svg viewBox="0 0 346 398" fill="none" xmlns="http://www.w3.org/2000/svg">
<path d="M241.855 199.824C230.446 188.412 214.972 182 198.837 182C182.702 182 167.228 188.412 155.819 199.824C144.41 211.237 138 226.716 138 242.856C138 258.995 144.41 274.474 155.819 285.887L241.855 371.95L327.892 285.887C339.301 274.474 345.711 258.995 345.711 242.856C345.711 226.716 339.301 211.237 327.892 199.824C316.483 188.412 301.009 182 284.874 182C268.739 182 253.265 188.412 241.855 199.824Z" fill="#3a4750"/>
<g clip-path="url(#clip0)">
<path d="M70.8765 397.903C109.886 397.903 141.51 391.336 141.51 383.234C141.51 375.133 109.886 368.565 70.8765 368.565C31.8665 368.565 0.242706 375.133 0.242706 383.234C0.242706 391.336 31.8665 397.903 70.8765 397.903Z" fill="#E6E6E6"/>
<path d="M40.3791 48.1381C53.8277 48.1381 64.7299 37.9245 64.7299 25.3255C64.7299 12.7264 53.8277 2.51286 40.3791 2.51286C26.9306 2.51286 16.0284 12.7264 16.0284 25.3255C16.0284 37.9245 26.9306 48.1381 40.3791 48.1381Z" fill="#2F2E41"/>
<path d="M111.274 167.442L117.439 176.074C117.439 176.074 147.029 182.239 135.933 191.488C124.836 200.736 108.808 182.856 108.808 182.856L100.177 171.758L111.274 167.442Z" fill="#FFB8B8"/>
<path d="M79.217 69.4093C79.217 69.4093 87.2312 69.4093 89.0806 80.5073C90.9301 91.6054 92.7795 128.599 92.7795 128.599C92.7795 128.599 118.671 162.509 114.356 166.825C110.041 171.141 105.109 179.156 102.027 177.923C98.9443 176.69 72.4359 140.313 72.4359 140.313L79.217 69.4093Z" fill="#333333"/>
<path d="M54.5581 37.9649C54.5581 37.9649 55.1745 62.0106 62.5722 63.2437C69.9699 64.4769 67.504 72.4921 67.504 72.4921C67.504 72.4921 43.4615 86.6729 27.4331 72.4921L24.3508 65.0934C24.3508 65.0934 35.4473 57.0782 30.5155 45.9801L54.5581 37.9649Z" fill="#FFB8B8"/>
<path d="M95.8619 185.939C95.8619 185.939 132.234 253.76 118.671 274.723C105.109 295.686 84.7653 338.845 81.683 338.845C78.6006 338.845 61.3393 330.213 62.5722 324.664C63.8052 319.115 82.2994 277.806 87.2312 274.106C92.163 270.407 89.6971 260.542 89.0806 259.925C88.4642 259.309 68.1205 226.631 68.1205 226.631C68.1205 226.631 68.737 278.422 66.2711 286.437C63.8052 294.453 66.8875 351.792 63.8052 354.259C60.7228 356.725 46.5439 361.041 44.078 357.341C41.6121 353.642 34.2144 297.535 39.1462 284.588L29.8991 195.804L95.8619 185.939Z" fill="#2F2E41"/>
<path d="M62.5723 350.559L77.9841 378.921C77.9841 378.921 100.177 394.951 84.7654 397.418C69.3535 399.884 60.1064 393.718 60.1064 393.718L46.5439 383.853V355.492L62.5723 350.559Z" fill="#2F2E41"/>
<path d="M83.5324 334.529L75.5182 353.642C75.5182 353.642 72.4358 361.657 75.5182 363.507C78.6006 365.357 87.2312 376.455 81.683 377.688C80.5668 377.907 79.4325 378.019 78.2952 378.025C73.6752 378.102 69.0871 377.245 64.8072 375.503C60.5273 373.761 56.644 371.171 53.391 367.889L48.3933 362.89C48.3933 362.89 65.5128 323.463 65.2755 323.755C65.0382 324.047 83.5324 334.529 83.5324 334.529Z" fill="#2F2E41"/>
<path d="M39.1462 52.7623C50.7222 52.7623 60.1063 43.3768 60.1063 31.7993C60.1063 20.2218 50.7222 10.8364 39.1462 10.8364C27.5702 10.8364 18.186 20.2218 18.186 31.7993C18.186 43.3768 27.5702 52.7623 39.1462 52.7623Z" fill="#FFB8B8"/>
<path d="M27.1249 61.0858L33.5979 67.5596C33.5979 67.5596 53.3251 74.9583 62.5722 67.5596C62.5722 67.5596 59.1816 60.4692 59.1816 61.0858C59.1816 61.7024 85.9983 65.71 88.4642 76.808C90.93 87.906 86.6147 107.019 86.6147 107.019C86.6147 107.019 103.876 188.405 97.0948 190.255C90.3136 192.104 26.8166 207.518 27.4331 195.804C28.0496 184.089 22.5013 135.997 22.5013 135.997L0.924683 94.6881C0.924683 94.6881 4.00705 81.1239 11.4048 76.808C18.8025 72.4921 27.1249 61.0858 27.1249 61.0858Z" fill="#333333"/>
<path d="M54.5581 181.623L62.5722 186.555C62.5722 186.555 93.396 207.518 77.3676 211.217C61.3393 214.917 52.0921 196.42 52.0921 196.42L45.9274 189.021L54.5581 181.623Z" fill="#FFB8B8"/>
<path opacity="0.1" d="M8.9389 90.9888L3.39062 96.5378C3.39062 96.5378 -0.308223 148.329 7.08948 158.81C14.4872 169.292 48.3933 197.653 50.2427 195.804C52.0921 193.954 63.8052 184.705 61.3393 183.472C58.8734 182.239 26.0875 147.978 26.0875 147.978L28.6661 100.237L8.9389 90.9888Z" fill="black"/>
<path d="M6.47299 89.1391L0.924713 94.6881C0.924713 94.6881 -2.77414 146.479 4.62357 156.96C12.0213 167.442 45.9274 195.804 47.7768 193.954C49.6263 192.104 61.3393 182.856 58.8734 181.623C56.4075 180.39 23.6216 146.128 23.6216 146.128L26.2002 98.3875L6.47299 89.1391Z" fill="#333333"/>
<path d="M47.8148 2.02278C47.8148 2.02278 54.9397 -0.568452 64.6555 4.9379L59.4738 6.23352C59.4738 6.23352 67.2464 6.88132 68.218 17.2462H64.6555C64.6555 17.2462 66.9226 26.3155 64.6555 28.9067L63.1982 26.1535L58.988 34.575L58.0164 30.3643L56.0733 31.0121L54.7778 24.2101C54.7778 24.2101 51.5392 29.0687 48.9483 29.3926V25.1819C48.9483 25.1819 41.8234 33.2794 39.5564 32.9555L42.795 28.4209L38.261 29.3926L40.2041 26.1536L28.5452 29.3926L31.1361 26.1535L23.0396 28.7448L19.1532 30.3643C19.1532 30.3643 13.6476 17.7321 21.4203 8.98669C29.1929 0.24131 40.528 -1.7021 47.8148 2.02278Z" fill="#2F2E41"/>
</g>
<defs>
<clipPath id="clip0">
<rect width="142" height="398" fill="white"/>
</clipPath>
</defs>
</svg>
